<svg xmlns="http://www.w3.org/2000/svg" width="25" height="25" viewBox="0 0 24 24"><g fill="none" fill-rule="evenodd"><path d="M24 0v24H0V0zM12.594 23.258l-.012.002l-.071.035l-.02.004l-.014-.004l-.071-.036q-.016-.004-.024.006l-.004.01l-.017.428l.005.02l.01.013l.104.074l.015.004l.012-.004l.104-.074l.012-.016l.004-.017l-.017-.427q-.004-.016-.016-.018m.264-.113l-.014.002l-.184.093l-.01.01l-.003.011l.018.43l.005.012l.008.008l.201.092q.019.005.029-.008l.004-.014l-.034-.614q-.005-.018-.02-.022m-.715.002a.02.02 0 0 0-.027.006l-.006.014l-.034.614q.001.018.017.024l.015-.002l.201-.093l.01-.008l.003-.011l.018-.43l-.003-.012l-.01-.01z"/><path fill="#ffffff" d="M5 3a2 2 0 0 0-2 2v14a2 2 0 0 0 2 2h9c.561 0 1.068-.231 1.431-.603l.587.157a2 2 0 0 0 2.45-1.414l2.587-9.66a2 2 0 0 0-1.414-2.449L16 6.055V5a2 2 0 0 0-2-2zm11 15.479V8.126l3.124.837l-2.588 9.66z"/></g></svg>
